Coordinates
version=1
nRows=17
nColumns=24
inDegrees=yes

Units are S.I. units (second, meters, Newtons, ...)
Angles are in degrees.

endheader
time	pelvis_tilt	pelvis_list	pelvis_rotation	pelvis_tx	pelvis_ty	pelvis_tz	hip_flexion_r	hip_adduction_r	hip_rotation_r	knee_angle_r	ankle_angle_r	subtalar_angle_r	mtp_angle_r	hip_flexion_l	hip_adduction_l	hip_rotation_l	knee_angle_l	ankle_angle_l	subtalar_angle_l	mtp_angle_l	lumbar_extension	lumbar_bending	lumbar_rotation
      1.21616667	      1.71741754	      1.12374889	     -9.07134706	      0.03913005	      0.87729486	      0.31971825	    -23.74151598	      1.04801572	      1.86118420	     -8.64355007	     20.82566332	     14.10349052	     10.13509670	     25.24994046	     -1.33493288	     -9.76393954	     -3.15696511	      4.45021672	     -3.78516974	      3.54906317	     -9.80826575	     -1.05688493	     12.65974439
      1.22033333	      1.65254021	      1.22480928	     -9.12739718	      0.04483349	      0.87615693	      0.31963812	    -23.83214337	      0.86619398	      1.82823365	     -9.06944517	     20.68465597	     14.11165437	     13.90359855	     25.47991130	     -1.23567430	     -9.81322455	     -3.88451357	      4.29896632	     -3.76902641	      4.11214995	     -9.73867004	     -1.25879407	     12.68108950
      1.22450000	      1.55439905	      1.33425585	     -9.16630169	      0.05060562	      0.87502116	      0.31952984	    -23.88062182	      0.68773706	      1.80020547	     -9.51623177	     20.51625051	     14.13834340	     13.93386673	     25.72089169	     -1.11482064	     -9.75891327	     -4.60111684	      4.09536943	     -3.91045388	      4.12514382	     -9.59628064	     -1.48355224	     12.70766122
      1.22866667	      1.45378359	      1.45046444	     -9.19774525	      0.05640816	      0.87392777	      0.31939568	    -23.90508894	      0.50411046	      1.75830186	    -10.00782388	     20.36875869	     14.16815640	     13.99756236	     25.96348492	     -0.98281434	     -9.73532655	     -5.34589632	      3.83286317	     -4.04335992	      4.15257661	     -9.45612416	     -1.70811106	     12.71893741
      1.23283333	      1.34738422	      1.57568161	     -9.21616823	      0.06225991	      0.87287700	      0.31923585	    -23.91093319	      0.31555911	      1.70134396	    -10.52427113	     20.17307901	     14.19625689	     14.09270197	     26.20757793	     -0.83531504	     -9.71253609	     -6.10782735	      3.51682044	     -4.19934296	      4.19399604	     -9.30442939	     -1.94593857	     12.71882248
      1.23700000	      1.23554932	      1.70752703	     -9.21816137	      0.06815184	      0.87187152	      0.31902601	    -23.89684586	      0.12438461	      1.63316247	    -11.06740570	     19.93828283	     14.22209008	     14.22633427	     26.45338459	     -0.66980644	     -9.67839580	     -6.88242529	      3.14594262	     -4.39318738	      4.25222554	     -9.14495156	     -2.18799629	     12.70592655
      1.24116667	      1.14496189	      1.84548325	     -9.19876841	      0.07408175	      0.87094209	      0.31877000	    -23.89337239	     -0.07104433	      1.52943927	    -11.62888463	     19.61457383	     14.21885353	     17.68012196	     26.66694547	     -0.47805083	     -9.60849821	     -7.64887513	      2.69294520	     -4.73638712	      5.85676877	     -9.02131670	     -2.42101058	     12.68310877
      1.24533333	      1.03161558	      1.99814848	     -9.18063112	      0.08008276	      0.87005669	      0.31851832	    -23.85702446	     -0.27837992	      1.44959570	    -12.20534571	     19.25967842	     14.19995931	     17.71246581	     26.90036062	     -0.27958318	     -9.58850198	     -8.43474212	      2.24289155	     -4.93082959	      5.87029815	     -8.84884432	     -2.70048929	     12.64679962
      1.24950000	      0.89242818	      2.14291689	     -9.13858595	      0.08606656	      0.86917691	      0.31819497	    -23.75307289	     -0.46740138	      1.34538547	    -12.86642811	     18.94656506	     14.21892407	     17.84006613	     27.17324890	     -0.07445839	     -9.49618458	     -9.25115254	      1.76107864	     -5.29555190	      5.92056898	     -8.65919766	     -2.93220305	     12.58333762
      1.25366667	      0.78296487	      2.32003316	     -9.08094204	      0.09215319	      0.86842003	      0.31786010	    -23.69155385	     -0.68828340	      1.23912804	    -13.49558434	     18.47316697	     14.18709450	     17.95079072	     27.39405074	      0.17376262	     -9.44314791	    -10.03691948	      1.26087302	     -5.56219029	      5.95897951	     -8.48757301	     -3.23889093	     12.53099576
      1.25783333	      0.64327538	      2.48935407	     -9.00879620	      0.09824013	      0.86767282	      0.31747587	    -23.56042278	     -0.89440879	      1.11981699	    -14.19858766	     18.01181451	     14.16769279	     18.12744690	     27.65806981	      0.42023102	     -9.34603935	    -10.85795675	      0.75482728	     -5.93295605	      6.01635179	     -8.28795239	     -3.51386008	     12.45270398
      1.26200000	      0.51640282	      2.66710352	     -8.91931697	      0.10436674	      0.86700720	      0.31705009	    -23.42741395	     -1.10745550	      0.98457526	    -14.92786515	     17.49551972	     14.14101924	     18.34724967	     27.90829066	      0.68675833	     -9.23758294	    -11.69028509	      0.26771775	     -6.31281502	      6.08294161	     -8.10293243	     -3.80173584	     12.36525789
      1.26616667	      0.37555836	      2.84734654	     -8.81762470	      0.11050638	      0.86638050	      0.31658991	    -23.24910267	     -1.31965901	      0.83232567	    -15.71148414	     16.94689706	     14.12389421	     18.66676626	     28.17864526	      0.96297844	     -9.09115483	    -12.54324521	     -0.20718616	     -6.74881066	      6.17306547	     -7.90224945	     -4.09001540	     12.25454163
      1.27033333	      0.29874459	      3.04445721	     -8.69459524	      0.11669317	      0.86590053	      0.31606561	    -23.12045637	     -1.56025713	      0.60820410	    -16.51635049	     16.28082108	     14.05074694	     24.77935692	     28.37384648	      1.27956144	     -8.95116895	    -13.38884493	     -0.66177774	     -7.23878932	      7.84270114	     -7.78707238	     -4.38192398	     12.17031833
      1.27450000	      0.17103980	      3.22382116	     -8.56555295	      0.12288621	      0.86542054	      0.31554935	    -22.91574595	     -1.76628042	      0.45611968	    -17.36877868	     15.61989301	     13.99470251	     24.84350388	     28.64684544	      1.56060990	     -8.82859945	    -14.31050985	     -1.01179127	     -7.57431610	      7.85604104	     -7.61365817	     -4.65840025	     12.04406301
      1.27866667	      0.05240974	      3.41991768	     -8.42182872	      0.12911634	      0.86501224	      0.31498941	    -22.69249520	     -1.99204332	      0.26795503	    -18.27050569	     14.93047233	     13.96275504	     24.98982191	     28.90269582	      1.87297230	     -8.67121291	    -15.22511813	     -1.31821232	     -7.95073317	      7.87336120	     -7.44435508	     -4.95663582	     11.91927169
      1.28283333	     -0.04159780	      3.63659786	     -8.27702425	      0.13539584	      0.86469205	      0.31441643	    -22.47330790	     -2.24791958	      0.06138083	    -19.20542331	     14.20888937	     13.95940171	     25.44861555	     29.12370942	      2.21720715	     -8.49209246	    -16.13987827	     -1.53282860	     -8.41918159	      7.91194659	     -7.29312201	     -5.29618315	     11.76487724
